# xmcd CD database file
#
# Track frame offsets:
#	150
#	23145
#	45247
#
# Disc length: 925 seconds
#
# Revision: 0
# Processed by: cddbd v1.5.1PL0 Copyright (c) Steve Scherf et al.
# Submitted via: CDex 1.51
#
DISCID=16039b03
DTITLE=山下久美子 - いっぱいキスしよう
DYEAR=1993
DGENRE=J-POP
TTITLE0=いっぱいキスしよう
TTITLE1=愛してたなんていまさら
TTITLE2=いっぱいキスしよう〜Aqua Kiss(Instrumental Version)
EXTD=YEAR: 1993
EXTT0=
EXTT1=
EXTT2=
PLAYORDER=
